<!DOCTYPE svg PUBLIC "-//W3C//DTD SVG 1.1//EN" "http://www.w3.org/Graphics/SVG/1.1/DTD/svg11.dtd">
<!-- Uploaded to: SVG Repo, www.svgrepo.com, Transformed by: SVG Repo Mixer Tools -->
<svg width="25px" height="25px" viewBox="0 -2 32 32" xmlns="http://www.w3.org/2000/svg" fill="#000000">
<g id="SVGRepo_bgCarrier" stroke-width="0"/>
<g id="SVGRepo_tracerCarrier" stroke-linecap="round" stroke-linejoin="round"/>
<g id="SVGRepo_iconCarrier"> <g id="Lager_37" data-name="Lager 37" transform="translate(0 -2)"> <path id="Path_44" data-name="Path 44" d="M26.06,2h-.12A5.939,5.939,0,0,0,20,7.94v.12a5.936,5.936,0,0,0,4,5.609V20a2,2,0,0,1-2,2h-.331a5.936,5.936,0,0,0-5.609-4h-.12a5.936,5.936,0,0,0-5.609,4H10a2,2,0,0,1-2-2V13.669A5.936,5.936,0,0,0,12,8.06V7.94A5.939,5.939,0,0,0,6.06,2H5.94A5.939,5.939,0,0,0,0,7.94v.12a5.936,5.936,0,0,0,4,5.609V22.04A3.96,3.96,0,0,0,7.96,26h2.371a5.936,5.936,0,0,0,5.609,4h.12a5.936,5.936,0,0,0,5.609-4H24.04A3.96,3.96,0,0,0,28,22.04V13.669A5.936,5.936,0,0,0,32,8.06V7.94A5.939,5.939,0,0,0,26.06,2ZM6,10A2,2,0,1,1,8,8,2,2,0,0,1,6,10ZM16,26a2,2,0,1,1,2-2A2,2,0,0,1,16,26ZM26,10a2,2,0,1,1,2-2A2,2,0,0,1,26,10Z" fill="#000000"/> </g> </g>
</svg>