<!DOCTYPE svg PUBLIC "-//W3C//DTD SVG 1.1//EN" "http://www.w3.org/Graphics/SVG/1.1/DTD/svg11.dtd">
<!-- Uploaded to: SVG Repo, www.svgrepo.com, Transformed by: SVG Repo Mixer Tools -->
<svg xmlns="http://www.w3.org/2000/svg" width="20px" height="20px" viewBox="0 0 24 24" fill="none" stroke="#fff" stroke-width="2" stroke-linecap="round" stroke-linejoin="round">
<g id="SVGRepo_bgCarrier" stroke-width="0"/>
<g id="SVGRepo_tracerCarrier" stroke-linecap="round" stroke-linejoin="round"/>
<g id="SVGRepo_iconCarrier"> <path d="M15.5 2H8.6c-.4 0-.8.2-1.1.5-.3.3-.5.7-.5 1.1v12.8c0 .4.2.8.5 1.1.3.3.7.5 1.1.5h9.8c.4 0 .8-.2 1.1-.5.3-.3.5-.7.5-1.1V6.5L15.5 2z"/> <path d="M3 7.6v12.8c0 .4.2.8.5 1.1.3.3.7.5 1.1.5h9.8"/> <path d="M15 2v5h5"/> </g>
</svg>